<?xml version="1.0" standalone="no"?>
<!DOCTYPE svg PUBLIC "-//W3C//DTD SVG 20010904//EN"
 "http://www.w3.org/TR/2001/REC-SVG-20010904/DTD/svg10.dtd">
<svg version="1.0" xmlns="http://www.w3.org/2000/svg"
 width="2948.000000pt" height="3249.000000pt" viewBox="0 0 2948.000000 3249.000000"
 preserveAspectRatio="xMidYMid meet">

<g transform="translate(0.000000,3249.000000) scale(0.100000,-0.100000)"
fill="#000000" stroke="none">
<path d="M8263 27752 l-8253 -4717 0 -7367 0 -7368 4723 -2 4722 -3 3 -4142 2
-4141 7763 4435 c5401 3087 7809 4458 7917 4508 683 317 1253 685 1815 1174
153 133 561 541 691 691 849 980 1415 2110 1673 3340 107 509 152 956 152
1510 0 449 -35 855 -110 1280 -317 1788 -1307 3416 -2761 4541 -1010 782
-2206 1288 -3460 1464 -102 15 -277 36 -390 48 -203 21 -240 21 -3210 26
l-3005 6 -3 4718 c-1 2594 -5 4717 -10 4716 -4 0 -3721 -2123 -8259 -4717z
m13647 -10054 c295 -56 468 -112 695 -225 604 -300 1056 -848 1234 -1498 89
-325 106 -683 50 -1015 -108 -634 -478 -1202 -1022 -1568 -286 -192 -614 -320
-973 -379 -104 -17 -490 -18 -8196 -20 l-8088 -3 0 2365 0 2365 8108 -3 c7387
-3 8115 -5 8192 -19z"/>
</g>
</svg>
